name rise42.5664peak47.7979fall81.9185.mot
datacolumns 19
datarows 24
range 0.73832800000000 0.77666400000000
endheader
time	ground_force1_vx	ground_force1_vy	ground_force1_vz	ground_force1_px	ground_force1_py	ground_force1_pz	ground_force2_vx	ground_force2_vy	ground_force2_vz	ground_force2_px	ground_force2_py	ground_force2_pz	ground_torque1_x	ground_torque1_y	ground_torque1_z	ground_torque2_x	ground_torque2_y	ground_torque2_z	
0.73832800000000	0.72970900000000	731.44492900000000	46.43147900000000	0.14029700000000	0.00000000000000	0.10671200000000	0.00000000000000	0.00000000000000	0.00000000000000	0.00000000000000	0.00000000000000	0.00000000000000	0.00000000000000	13.19852000000000	0.00000000000000	0.00000000000000	0.00000000000000	0.00000000000000	
0.73999800000000	0.46413200000000	732.74782700000003	46.66179000000000	0.13947900000000	0.00000000000000	0.10670600000000	0.00000000000000	0.00000000000000	0.00000000000000	0.00000000000000	0.00000000000000	0.00000000000000	0.00000000000000	13.27033000000000	0.00000000000000	0.00000000000000	0.00000000000000	0.00000000000000	
0.74167000000000	0.19393500000000	734.03695900000002	46.88854700000000	0.13865300000000	0.00000000000000	0.10669700000000	0.00000000000000	0.00000000000000	0.00000000000000	0.00000000000000	0.00000000000000	0.00000000000000	0.00000000000000	13.34149800000000	0.00000000000000	0.00000000000000	0.00000000000000	0.00000000000000	
0.74334400000000	-0.08098300000000	735.31022199999995	47.11115800000000	0.13781800000000	0.00000000000000	0.10668400000000	0.00000000000000	0.00000000000000	0.00000000000000	0.00000000000000	0.00000000000000	0.00000000000000	0.00000000000000	13.41192900000000	0.00000000000000	0.00000000000000	0.00000000000000	0.00000000000000	
0.74500000000000	-0.36069900000000	736.56570499999998	47.32905300000000	0.13697700000000	0.00000000000000	0.10666700000000	0.00000000000000	0.00000000000000	0.00000000000000	0.00000000000000	0.00000000000000	0.00000000000000	0.00000000000000	13.48153000000000	0.00000000000000	0.00000000000000	0.00000000000000	0.00000000000000	
0.74666300000000	-0.64527100000000	737.80169000000001	47.54169000000000	0.13612800000000	0.00000000000000	0.10664700000000	0.00000000000000	0.00000000000000	0.00000000000000	0.00000000000000	0.00000000000000	0.00000000000000	0.00000000000000	13.55021500000000	0.00000000000000	0.00000000000000	0.00000000000000	0.00000000000000	
0.74833400000000	-0.93473700000000	739.01665200000002	47.74855200000000	0.13527200000000	0.00000000000000	0.10662300000000	0.00000000000000	0.00000000000000	0.00000000000000	0.00000000000000	0.00000000000000	0.00000000000000	0.00000000000000	13.61790100000000	0.00000000000000	0.00000000000000	0.00000000000000	0.00000000000000	
0.74999400000000	-1.22911400000000	740.20926499999996	47.94915100000000	0.13441100000000	0.00000000000000	0.10659500000000	0.00000000000000	0.00000000000000	0.00000000000000	0.00000000000000	0.00000000000000	0.00000000000000	0.00000000000000	13.68451300000000	0.00000000000000	0.00000000000000	0.00000000000000	0.00000000000000	
0.75166500000000	-1.52839800000000	741.37839799999995	48.14302900000000	0.13354400000000	0.00000000000000	0.10656400000000	0.00000000000000	0.00000000000000	0.00000000000000	0.00000000000000	0.00000000000000	0.00000000000000	0.00000000000000	13.74997800000000	0.00000000000000	0.00000000000000	0.00000000000000	0.00000000000000	
0.75332900000000	-1.83256800000000	742.52311699999996	48.32975600000000	0.13267100000000	0.00000000000000	0.10652800000000	0.00000000000000	0.00000000000000	0.00000000000000	0.00000000000000	0.00000000000000	0.00000000000000	0.00000000000000	13.81422800000000	0.00000000000000	0.00000000000000	0.00000000000000	0.00000000000000	
0.75499800000000	-2.14158100000000	743.64267800000005	48.50893800000000	0.13179400000000	0.00000000000000	0.10648900000000	0.00000000000000	0.00000000000000	0.00000000000000	0.00000000000000	0.00000000000000	0.00000000000000	0.00000000000000	13.87720000000000	0.00000000000000	0.00000000000000	0.00000000000000	0.00000000000000	
0.75666700000000	-2.45537700000000	744.73653100000001	48.68020800000000	0.13091200000000	0.00000000000000	0.10644500000000	0.00000000000000	0.00000000000000	0.00000000000000	0.00000000000000	0.00000000000000	0.00000000000000	0.00000000000000	13.93883500000000	0.00000000000000	0.00000000000000	0.00000000000000	0.00000000000000	
0.75832600000000	-2.77387600000000	745.80431399999998	48.84323800000000	0.13002600000000	0.00000000000000	0.10639800000000	0.00000000000000	0.00000000000000	0.00000000000000	0.00000000000000	0.00000000000000	0.00000000000000	0.00000000000000	13.99907700000000	0.00000000000000	0.00000000000000	0.00000000000000	0.00000000000000	
0.76000000000000	-3.09698000000000	746.84584500000005	48.99772900000000	0.12913800000000	0.00000000000000	0.10634700000000	0.00000000000000	0.00000000000000	0.00000000000000	0.00000000000000	0.00000000000000	0.00000000000000	0.00000000000000	14.05787500000000	0.00000000000000	0.00000000000000	0.00000000000000	0.00000000000000	
0.76167700000000	-3.42457400000000	747.86112300000002	49.14341900000000	0.12824600000000	0.00000000000000	0.10629100000000	0.00000000000000	0.00000000000000	0.00000000000000	0.00000000000000	0.00000000000000	0.00000000000000	0.00000000000000	14.11518200000000	0.00000000000000	0.00000000000000	0.00000000000000	0.00000000000000	
0.76332600000000	-3.75652500000000	748.85031900000001	49.28008200000000	0.12735100000000	0.00000000000000	0.10623200000000	0.00000000000000	0.00000000000000	0.00000000000000	0.00000000000000	0.00000000000000	0.00000000000000	0.00000000000000	14.17095300000000	0.00000000000000	0.00000000000000	0.00000000000000	0.00000000000000	
0.76499300000000	-4.09268300000000	749.81376699999998	49.40752500000000	0.12645400000000	0.00000000000000	0.10616800000000	0.00000000000000	0.00000000000000	0.00000000000000	0.00000000000000	0.00000000000000	0.00000000000000	0.00000000000000	14.22514600000000	0.00000000000000	0.00000000000000	0.00000000000000	0.00000000000000	
0.76666300000000	-4.43288400000000	750.75196400000004	49.52559300000000	0.12555600000000	0.00000000000000	0.10610100000000	0.00000000000000	0.00000000000000	0.00000000000000	0.00000000000000	0.00000000000000	0.00000000000000	0.00000000000000	14.27772200000000	0.00000000000000	0.00000000000000	0.00000000000000	0.00000000000000	
0.76832800000000	-4.77694500000000	751.66555500000004	49.63416300000000	0.12465600000000	0.00000000000000	0.10603000000000	0.00000000000000	0.00000000000000	0.00000000000000	0.00000000000000	0.00000000000000	0.00000000000000	0.00000000000000	14.32864500000000	0.00000000000000	0.00000000000000	0.00000000000000	0.00000000000000	
0.76999900000000	-5.12467000000000	752.55533000000003	49.73315400000000	0.12375500000000	0.00000000000000	0.10595400000000	0.00000000000000	0.00000000000000	0.00000000000000	0.00000000000000	0.00000000000000	0.00000000000000	0.00000000000000	14.37788100000000	0.00000000000000	0.00000000000000	0.00000000000000	0.00000000000000	
0.77167700000000	-5.47585000000000	753.42221099999995	49.82251400000000	0.12285400000000	0.00000000000000	0.10587500000000	0.00000000000000	0.00000000000000	0.00000000000000	0.00000000000000	0.00000000000000	0.00000000000000	0.00000000000000	14.42539800000000	0.00000000000000	0.00000000000000	0.00000000000000	0.00000000000000	
0.77332900000000	-5.83026000000000	754.26724700000000	49.90223300000000	0.12195200000000	0.00000000000000	0.10579200000000	0.00000000000000	0.00000000000000	0.00000000000000	0.00000000000000	0.00000000000000	0.00000000000000	0.00000000000000	14.47116600000000	0.00000000000000	0.00000000000000	0.00000000000000	0.00000000000000	
0.77500000000000	-6.18766300000000	755.09159899999997	49.97233300000000	0.12105000000000	0.00000000000000	0.10570500000000	0.00000000000000	0.00000000000000	0.00000000000000	0.00000000000000	0.00000000000000	0.00000000000000	0.00000000000000	14.51515600000000	0.00000000000000	0.00000000000000	0.00000000000000	0.00000000000000	
0.77666400000000	-6.54781000000000	755.89653699999997	50.03287300000000	0.12014800000000	0.00000000000000	0.10561400000000	0.00000000000000	0.00000000000000	0.00000000000000	0.00000000000000	0.00000000000000	0.00000000000000	0.00000000000000	14.55734200000000	0.00000000000000	0.00000000000000	0.00000000000000	0.00000000000000	
